<svg xmlns="http://www.w3.org/2000/svg"  viewBox="0 0 48 48" width="48px" height="48px"><path fill="#ef4823" d="M43,34.204c-3.082,0-3.082-0.163-6.163-0.163c-3.083,0-3.083-0.179-6.165-0.179 c-3.081,0-3.081,0.067-6.162,0.067c-3.084,0-3.084,0.255-6.167,0.255c-3.086,0-3.086,0.145-6.171,0.145 c-3.086,0-3.086-0.112-6.171-0.112c-1.105,0-1.898-1.11-1.898-2.215c0-3.665-0.03-3.665-0.03-7.33c0-3.668-0.07-3.668-0.07-7.335 c0-3.668-0.317-3.668-0.317-7.335c0-1.105,1.212-1.96,2.317-1.96c3.082,0,3.082,0.342,6.163,0.342c3.083,0,3.083-0.619,6.165-0.619 c3.081,0,3.081,0.268,6.162,0.268c3.084,0,3.084,0.038,6.167,0.038c3.086,0,3.086-0.395,6.171-0.395 c3.086,0,3.086-0.003,6.171-0.003c1.105,0,2.044,1.224,2.044,2.329c0,3.665,0.157,3.665,0.157,7.33 c0,3.668,0.186,3.668,0.186,7.335S44.944,28.332,44.944,32C44.944,33.105,44.105,34.204,43,34.204z"/><path fill="#ef4823" d="M37.339,40.448c0.383-0.214-26.08,0.141-25.804,0.317c-0.26-0.355-0.215-3.041-0.073-3.179 c0.144-0.008,26.186,0.112,26.065-0.187C37.679,37.274,37.414,40.38,37.339,40.448z"/><path fill="none" stroke="#010101" stroke-linejoin="round" stroke-miterlimit="10" d="M42.5,34.704	c-3.082,0-3.082-0.163-6.163-0.163c-3.083,0-3.083-0.179-6.165-0.179c-3.081,0-3.081,0.067-6.162,0.067	c-3.084,0-3.084,0.255-6.167,0.255c-3.086,0-3.086,0.145-6.171,0.145c-3.086,0-3.086-0.112-6.171-0.112	c-1.105,0-1.898-1.11-1.898-2.215c0-3.665-0.03-3.665-0.03-7.33c0-3.668-0.07-3.668-0.07-7.335c0-3.668-0.317-3.668-0.317-7.335	c0-1.105,1.212-1.96,2.317-1.96c3.082,0,3.082,0.342,6.163,0.342c3.083,0,3.083-0.619,6.165-0.619c3.081,0,3.081,0.268,6.162,0.268	c3.084,0,3.084,0.038,6.167,0.038c3.086,0,3.086-0.395,6.171-0.395c3.086,0,3.086-0.003,6.171-0.003	c1.105,0,2.044,1.224,2.044,2.329c0,3.665,0.157,3.665,0.157,7.33c0,3.668,0.186,3.668,0.186,7.335s-0.442,3.668-0.442,7.335	C44.444,33.605,43.605,34.704,42.5,34.704z"/><path fill="none" stroke="#010101" stroke-linejoin="round" stroke-miterlimit="10" d="M37.339,40.448	c0.383-0.214-26.08,0.141-25.804,0.317c-0.26-0.355-0.215-3.041-0.073-3.179c0.144-0.008,26.186,0.112,26.065-0.187	C37.679,37.274,37.414,40.38,37.339,40.448z"/><path fill="#fff" d="M20.5,22c0.177-0.118,0.028-5.882,0-6c-0.193,0.039,5.016,2.96,5.196,3 c-0.03,0.038,5.052,3.099,5.196,3c0.085,0.034-5.175,2.955-5.196,3c0.118,0.088-5.053,2.9-5.196,3 C20.362,27.932,20.431,21.947,20.5,22z"/><path fill="none" stroke="#010101" stroke-linejoin="round" stroke-miterlimit="10" d="M20.5,22c0.177-0.118,0.028-5.882,0-6 c-0.193,0.039,5.016,2.96,5.196,3c-0.03,0.038,5.052,3.099,5.196,3c0.085,0.034-5.175,2.955-5.196,3 c0.118,0.088-5.053,2.9-5.196,3C20.362,27.932,20.431,21.947,20.5,22z"/></svg>